# 3ds Max Wavefront OBJ Exporter v0.97b - (c)2007 guruware
# File Created: 17.01.2011 00:35:03

mtllib pool-stick.mtl

#
# object poolstick
#

v  25.3165 20.4757 0.4502
v  25.3165 20.6880 0.8180
v  25.3165 20.5856 0.8604
v  25.3165 20.4757 0.8749
v  25.3165 20.8435 0.6626
v  25.3165 20.7760 0.7505
v  25.3165 20.9004 0.4502
v  25.3165 20.8859 0.5602
v  25.3165 20.8435 0.2379
v  25.3165 20.8859 0.3403
v  25.3165 20.6880 0.0825
v  25.3165 20.7760 0.1500
v  25.3165 20.4757 0.0256
v  25.3165 20.5856 0.0401
v  25.3165 20.2634 0.0825
v  25.3165 20.3658 0.0401
v  25.3165 20.1079 0.2379
v  25.3165 20.1754 0.1500
v  25.3165 20.0510 0.4502
v  25.3165 20.0655 0.3403
v  25.3165 20.1079 0.6626
v  25.3165 20.0655 0.5602
v  25.3165 20.2634 0.8180
v  25.3165 20.1754 0.7505
v  25.3165 20.3658 0.8604
v  13.2928 20.5856 0.8604
v  13.2928 20.4757 0.8749
v  13.2928 20.6880 0.8180
v  13.2928 20.7760 0.7505
v  13.2928 20.8435 0.6626
v  13.2928 20.8859 0.5602
v  13.2928 20.9004 0.4502
v  13.2928 20.8859 0.3403
v  13.2928 20.8435 0.2379
v  13.2928 20.7760 0.1500
v  13.2928 20.6880 0.0825
v  13.2928 20.5856 0.0400
v  13.2928 20.4757 0.0256
v  13.2928 20.3658 0.0400
v  13.2928 20.2634 0.0825
v  13.2928 20.1754 0.1500
v  13.2928 20.1079 0.2379
v  13.2928 20.0655 0.3403
v  13.2928 20.0510 0.4502
v  13.2928 20.0655 0.5602
v  13.2928 20.1079 0.6626
v  13.2928 20.1754 0.7505
v  13.2928 20.2634 0.8180
v  13.2928 20.3658 0.8604
v  -18.7420 20.5181 0.6086
v  -18.7420 20.4757 0.6142
v  -18.7420 20.5577 0.5922
v  -18.7420 20.5916 0.5662
v  -18.7420 20.6177 0.5322
v  -18.7420 20.6341 0.4927
v  -18.7420 20.6397 0.4502
v  -18.7420 20.6341 0.4078
v  -18.7420 20.6177 0.3683
v  -18.7420 20.5916 0.3343
v  -18.7420 20.5577 0.3082
v  -18.7420 20.5181 0.2919
v  -18.7420 20.4757 0.2863
v  -18.7420 20.4333 0.2919
v  -18.7420 20.3937 0.3082
v  -18.7420 20.3598 0.3343
v  -18.7420 20.3337 0.3683
v  -18.7420 20.3173 0.4078
v  -18.7420 20.3117 0.4502
v  -18.7420 20.3173 0.4927
v  -18.7420 20.3337 0.5322
v  -18.7420 20.3598 0.5662
v  -18.7420 20.3937 0.5922
v  -18.7420 20.4333 0.6086
v  -18.7420 20.4757 0.4502
# 74 vertices

vn 1.0000 -0.0000 0.0000
vn 0.0000 0.0000 1.0000
vn 0.0000 0.2588 0.9659
vn -0.0041 0.2588 0.9659
vn -0.0041 0.0000 1.0000
vn 0.0000 0.5000 0.8660
vn -0.0041 0.5000 0.8660
vn 0.0000 0.7071 0.7071
vn -0.0041 0.7071 0.7071
vn -0.0000 0.8660 0.5000
vn -0.0041 0.8660 0.5000
vn -0.0000 0.9659 0.2588
vn -0.0041 0.9659 0.2588
vn -0.0000 1.0000 -0.0000
vn -0.0041 1.0000 -0.0000
vn -0.0000 0.9659 -0.2588
vn -0.0041 0.9659 -0.2588
vn -0.0000 0.8660 -0.5000
vn -0.0041 0.8660 -0.5000
vn -0.0000 0.7071 -0.7071
vn -0.0041 0.7071 -0.7071
vn -0.0000 0.5000 -0.8660
vn -0.0041 0.5000 -0.8660
vn -0.0000 0.2588 -0.9659
vn -0.0041 0.2588 -0.9659
vn -0.0000 -0.0000 -1.0000
vn -0.0041 -0.0000 -1.0000
vn -0.0000 -0.2588 -0.9659
vn -0.0041 -0.2588 -0.9659
vn -0.0000 -0.5000 -0.8660
vn -0.0041 -0.5000 -0.8660
vn -0.0000 -0.7071 -0.7071
vn -0.0041 -0.7071 -0.7071
vn 0.0000 -0.8660 -0.5000
vn -0.0041 -0.8660 -0.5000
vn 0.0000 -0.9659 -0.2588
vn -0.0041 -0.9659 -0.2588
vn 0.0000 -1.0000 0.0000
vn -0.0041 -1.0000 0.0000
vn 0.0000 -0.9659 0.2588
vn -0.0041 -0.9659 0.2588
vn 0.0000 -0.8660 0.5000
vn -0.0041 -0.8660 0.5000
vn 0.0000 -0.7071 0.7071
vn -0.0041 -0.7071 0.7071
vn 0.0000 -0.5000 0.8660
vn -0.0041 -0.5000 0.8660
vn 0.0000 -0.2588 0.9659
vn -0.0041 -0.2588 0.9659
vn -0.0081 0.2588 0.9659
vn -0.0081 -0.0000 1.0000
vn -0.0081 0.5000 0.8660
vn -0.0081 0.7071 0.7071
vn -0.0081 0.8660 0.5000
vn -0.0081 0.9659 0.2588
vn -0.0081 1.0000 -0.0000
vn -0.0081 0.9659 -0.2588
vn -0.0081 0.8660 -0.5000
vn -0.0081 0.7071 -0.7071
vn -0.0081 0.5000 -0.8660
vn -0.0081 0.2588 -0.9659
vn -0.0081 -0.0000 -1.0000
vn -0.0081 -0.2588 -0.9659
vn -0.0081 -0.5000 -0.8660
vn -0.0081 -0.7071 -0.7071
vn -0.0081 -0.8660 -0.5000
vn -0.0081 -0.9659 -0.2588
vn -0.0081 -1.0000 0.0000
vn -0.0081 -0.9659 0.2588
vn -0.0081 -0.8660 0.5000
vn -0.0081 -0.7071 0.7071
vn -0.0081 -0.5000 0.8660
vn -0.0081 -0.2588 0.9659
vn -1.0000 0.0000 -0.0000
# 74 vertex normals

vt 0.5000 0.5000 -0.7358
vt 0.4877 0.4929 -0.7358
vt 0.4863 0.4963 -0.7358
vt 0.4858 0.5000 -0.7358
vt 0.4929 0.4877 -0.7358
vt 0.4900 0.4900 -0.7358
vt 0.5000 0.4858 -0.7358
vt 0.4963 0.4863 -0.7358
vt 0.5071 0.4877 -0.7358
vt 0.5037 0.4863 -0.7358
vt 0.5123 0.4929 -0.7358
vt 0.5100 0.4900 -0.7358
vt 0.5142 0.5000 -0.7358
vt 0.5137 0.4963 -0.7358
vt 0.5123 0.5071 -0.7358
vt 0.5137 0.5037 -0.7358
vt 0.5071 0.5123 -0.7358
vt 0.5100 0.5100 -0.7358
vt 0.5000 0.5142 -0.7358
vt 0.5037 0.5137 -0.7358
vt 0.4929 0.5123 -0.7358
vt 0.4963 0.5137 -0.7358
vt 0.4877 0.5071 -0.7358
vt 0.4900 0.5100 -0.7358
vt 0.4863 0.5037 -0.7358
vt -0.0000 -0.9716 0.0284
vt 0.0417 -0.9716 0.0284
vt 0.0417 -0.1684 0.0284
vt -0.0000 -0.1684 0.0284
vt 0.0833 -0.9716 0.0284
vt 0.0833 -0.1684 0.0284
vt 0.1250 -0.9716 0.0284
vt 0.1250 -0.1684 0.0284
vt 0.1667 -0.9716 0.0284
vt 0.1667 -0.1684 0.0284
vt 0.2083 -0.9716 0.0284
vt 0.2083 -0.1684 0.0284
vt 0.2500 -0.9716 0.0284
vt 0.2500 -0.1684 0.0284
vt 0.2917 -0.9716 0.0284
vt 0.2917 -0.1684 0.0284
vt 0.3333 -0.9716 0.0284
vt 0.3333 -0.1684 0.0284
vt 0.3750 -0.9716 0.0284
vt 0.3750 -0.1684 0.0284
vt 0.4167 -0.9716 0.0284
vt 0.4167 -0.1684 0.0284
vt 0.4583 -0.9716 0.0284
vt 0.4583 -0.1684 0.0284
vt 0.5000 -0.9716 0.0284
vt 0.5000 -0.1684 0.0284
vt 0.5417 -0.9716 0.0284
vt 0.5417 -0.1684 0.0284
vt 0.5833 -0.9716 0.0284
vt 0.5833 -0.1684 0.0284
vt 0.6250 -0.9716 0.0284
vt 0.6250 -0.1684 0.0284
vt 0.6667 -0.9716 0.0284
vt 0.6667 -0.1684 0.0284
vt 0.7083 -0.9716 0.0284
vt 0.7083 -0.1684 0.0284
vt 0.7500 -0.9716 0.0284
vt 0.7500 -0.1684 0.0284
vt 0.7917 -0.9716 0.0284
vt 0.7917 -0.1684 0.0284
vt 0.8333 -0.9716 0.0284
vt 0.8333 -0.1684 0.0284
vt 0.8750 -0.9716 0.0284
vt 0.8750 -0.1684 0.0284
vt 0.9167 -0.9716 0.0284
vt 0.9167 -0.1684 0.0284
vt 0.9583 -0.9716 0.0284
vt 0.9583 -0.1684 0.0284
vt 1.0000 -0.9716 0.0284
vt 1.0000 -0.1684 0.0284
vt 0.0417 1.9716 0.0110
vt -0.0000 1.9716 0.0110
vt 0.0833 1.9716 0.0110
vt 0.1250 1.9716 0.0110
vt 0.1667 1.9716 0.0110
vt 0.2083 1.9716 0.0110
vt 0.2500 1.9716 0.0110
vt 0.2917 1.9716 0.0110
vt 0.3333 1.9716 0.0110
vt 0.3750 1.9716 0.0110
vt 0.4167 1.9716 0.0110
vt 0.4583 1.9716 0.0110
vt 0.5000 1.9716 0.0110
vt 0.5417 1.9716 0.0110
vt 0.5833 1.9716 0.0110
vt 0.6250 1.9716 0.0110
vt 0.6667 1.9716 0.0110
vt 0.7083 1.9716 0.0110
vt 0.7500 1.9716 0.0110
vt 0.7917 1.9716 0.0110
vt 0.8333 1.9716 0.0110
vt 0.8750 1.9716 0.0110
vt 0.9167 1.9716 0.0110
vt 0.9583 1.9716 0.0110
vt 1.0000 1.9716 0.0110
vt 0.5000 0.5000 0.7358
vt 0.4947 0.5014 0.7358
vt 0.4945 0.5000 0.7358
vt 0.4947 0.4986 0.7358
vt 0.4953 0.4973 0.7358
vt 0.4961 0.4961 0.7358
vt 0.4973 0.4953 0.7358
vt 0.4986 0.4947 0.7358
vt 0.5000 0.4945 0.7358
vt 0.5014 0.4947 0.7358
vt 0.5027 0.4953 0.7358
vt 0.5039 0.4961 0.7358
vt 0.5047 0.4973 0.7358
vt 0.5053 0.4986 0.7358
vt 0.5055 0.5000 0.7358
vt 0.5053 0.5014 0.7358
vt 0.5047 0.5027 0.7358
vt 0.5039 0.5039 0.7358
vt 0.5027 0.5047 0.7358
vt 0.5014 0.5053 0.7358
vt 0.5000 0.5055 0.7358
vt 0.4986 0.5053 0.7358
vt 0.4973 0.5047 0.7358
vt 0.4961 0.5039 0.7358
vt 0.4953 0.5027 0.7358
# 125 texture coords

g poolstick
usemtl pool_stick_pattern
s 1
f 1/1/1 2/2/1 3/3/1 4/4/1 
f 1/1/1 5/5/1 6/6/1 2/2/1 
f 1/1/1 7/7/1 8/8/1 5/5/1 
f 1/1/1 9/9/1 10/10/1 7/7/1 
f 1/1/1 11/11/1 12/12/1 9/9/1 
f 1/1/1 13/13/1 14/14/1 11/11/1 
f 1/1/1 15/15/1 16/16/1 13/13/1 
f 1/1/1 17/17/1 18/18/1 15/15/1 
f 1/1/1 19/19/1 20/20/1 17/17/1 
f 1/1/1 21/21/1 22/22/1 19/19/1 
f 1/1/1 23/23/1 24/24/1 21/21/1 
f 1/1/1 4/4/1 25/25/1 23/23/1 
s 8
f 4/26/2 3/27/3 26/28/4 27/29/5 
f 3/27/3 2/30/6 28/31/7 26/28/4 
f 2/30/6 6/32/8 29/33/9 28/31/7 
f 6/32/8 5/34/10 30/35/11 29/33/9 
f 5/34/10 8/36/12 31/37/13 30/35/11 
f 8/36/12 7/38/14 32/39/15 31/37/13 
f 7/38/14 10/40/16 33/41/17 32/39/15 
f 10/40/16 9/42/18 34/43/19 33/41/17 
f 9/42/18 12/44/20 35/45/21 34/43/19 
f 12/44/20 11/46/22 36/47/23 35/45/21 
f 11/46/22 14/48/24 37/49/25 36/47/23 
f 14/48/24 13/50/26 38/51/27 37/49/25 
f 13/50/26 16/52/28 39/53/29 38/51/27 
f 16/52/28 15/54/30 40/55/31 39/53/29 
f 15/54/30 18/56/32 41/57/33 40/55/31 
f 18/56/32 17/58/34 42/59/35 41/57/33 
f 17/58/34 20/60/36 43/61/37 42/59/35 
f 20/60/36 19/62/38 44/63/39 43/61/37 
f 19/62/38 22/64/40 45/65/41 44/63/39 
f 22/64/40 21/66/42 46/67/43 45/65/41 
f 21/66/42 24/68/44 47/69/45 46/67/43 
f 24/68/44 23/70/46 48/71/47 47/69/45 
f 23/70/46 25/72/48 49/73/49 48/71/47 
f 25/72/48 4/74/2 27/75/5 49/73/49 
usemtl wood_
f 27/29/5 26/28/4 50/76/50 51/77/51 
f 26/28/4 28/31/7 52/78/52 50/76/50 
f 28/31/7 29/33/9 53/79/53 52/78/52 
f 29/33/9 30/35/11 54/80/54 53/79/53 
f 30/35/11 31/37/13 55/81/55 54/80/54 
f 31/37/13 32/39/15 56/82/56 55/81/55 
f 32/39/15 33/41/17 57/83/57 56/82/56 
f 33/41/17 34/43/19 58/84/58 57/83/57 
f 34/43/19 35/45/21 59/85/59 58/84/58 
f 35/45/21 36/47/23 60/86/60 59/85/59 
f 36/47/23 37/49/25 61/87/61 60/86/60 
f 37/49/25 38/51/27 62/88/62 61/87/61 
f 38/51/27 39/53/29 63/89/63 62/88/62 
f 39/53/29 40/55/31 64/90/64 63/89/63 
f 40/55/31 41/57/33 65/91/65 64/90/64 
f 41/57/33 42/59/35 66/92/66 65/91/65 
f 42/59/35 43/61/37 67/93/67 66/92/66 
f 43/61/37 44/63/39 68/94/68 67/93/67 
f 44/63/39 45/65/41 69/95/69 68/94/68 
f 45/65/41 46/67/43 70/96/70 69/95/69 
f 46/67/43 47/69/45 71/97/71 70/96/70 
f 47/69/45 48/71/47 72/98/72 71/97/71 
f 48/71/47 49/73/49 73/99/73 72/98/72 
f 49/73/49 27/75/5 51/100/51 73/99/73 
s 1
f 74/101/74 73/102/74 51/103/74 50/104/74 
f 74/101/74 50/104/74 52/105/74 53/106/74 
f 74/101/74 53/106/74 54/107/74 55/108/74 
f 74/101/74 55/108/74 56/109/74 57/110/74 
f 74/101/74 57/110/74 58/111/74 59/112/74 
f 74/101/74 59/112/74 60/113/74 61/114/74 
f 74/101/74 61/114/74 62/115/74 63/116/74 
f 74/101/74 63/116/74 64/117/74 65/118/74 
f 74/101/74 65/118/74 66/119/74 67/120/74 
f 74/101/74 67/120/74 68/121/74 69/122/74 
f 74/101/74 69/122/74 70/123/74 71/124/74 
f 74/101/74 71/124/74 72/125/74 73/102/74 
# 72 polygons

